<mxfile host="app.diagrams.net" modified="2021-03-14T12:43:45.137Z" agent="5.0 (Windows NT 10.0; Win64; x64) AppleWebKit/537.36 (KHTML, like Gecko) Chrome/89.0.4389.82 Safari/537.36 Edg/89.0.774.50" etag="YhCkhy9s7tiKW05SOcBf" version="14.4.7" type="github">
  <diagram id="LhHc3a0Fzvn-CeZbHbqc" name="Page-1">
    <mxGraphModel dx="1178" dy="647" grid="1" gridSize="10" guides="1" tooltips="1" connect="1" arrows="1" fold="1" page="1" pageScale="1" pageWidth="827" pageHeight="1169" math="0" shadow="0">
      <root>
        <mxCell id="0" />
        <mxCell id="1" parent="0" />
        <mxCell id="r9hPNLz82CNfn7fM7DFw-15" value="" style="edgeStyle=orthogonalEdgeStyle;rounded=0;orthogonalLoop=1;jettySize=auto;html=1;" edge="1" parent="1" source="r9hPNLz82CNfn7fM7DFw-1" target="r9hPNLz82CNfn7fM7DFw-4">
          <mxGeometry relative="1" as="geometry" />
        </mxCell>
        <mxCell id="r9hPNLz82CNfn7fM7DFw-1" value="WEB-GUI&lt;br&gt;&quot;Satellit hinzufügen&quot;" style="ellipse;whiteSpace=wrap;html=1;" vertex="1" parent="1">
          <mxGeometry x="310" y="130" width="120" height="80" as="geometry" />
        </mxCell>
        <mxCell id="r9hPNLz82CNfn7fM7DFw-17" value="" style="edgeStyle=orthogonalEdgeStyle;rounded=0;orthogonalLoop=1;jettySize=auto;html=1;" edge="1" parent="1" source="r9hPNLz82CNfn7fM7DFw-2" target="r9hPNLz82CNfn7fM7DFw-6">
          <mxGeometry relative="1" as="geometry" />
        </mxCell>
        <mxCell id="r9hPNLz82CNfn7fM7DFw-2" value="Variablen deklariren" style="rounded=0;whiteSpace=wrap;html=1;" vertex="1" parent="1">
          <mxGeometry x="310" y="310" width="120" height="60" as="geometry" />
        </mxCell>
        <mxCell id="r9hPNLz82CNfn7fM7DFw-16" value="" style="edgeStyle=orthogonalEdgeStyle;rounded=0;orthogonalLoop=1;jettySize=auto;html=1;" edge="1" parent="1" source="r9hPNLz82CNfn7fM7DFw-4" target="r9hPNLz82CNfn7fM7DFw-2">
          <mxGeometry relative="1" as="geometry" />
        </mxCell>
        <mxCell id="r9hPNLz82CNfn7fM7DFw-4" value="Klassen importieren" style="rounded=0;whiteSpace=wrap;html=1;" vertex="1" parent="1">
          <mxGeometry x="310" y="230" width="120" height="60" as="geometry" />
        </mxCell>
        <mxCell id="r9hPNLz82CNfn7fM7DFw-18" value="" style="edgeStyle=orthogonalEdgeStyle;rounded=0;orthogonalLoop=1;jettySize=auto;html=1;" edge="1" parent="1" source="r9hPNLz82CNfn7fM7DFw-6" target="r9hPNLz82CNfn7fM7DFw-12">
          <mxGeometry relative="1" as="geometry" />
        </mxCell>
        <mxCell id="r9hPNLz82CNfn7fM7DFw-6" value="Ist ein ESP32 angeschlossen?" style="rhombus;whiteSpace=wrap;html=1;" vertex="1" parent="1">
          <mxGeometry x="290" y="400" width="160" height="150" as="geometry" />
        </mxCell>
        <mxCell id="r9hPNLz82CNfn7fM7DFw-7" value="Ende" style="ellipse;whiteSpace=wrap;html=1;" vertex="1" parent="1">
          <mxGeometry x="310" y="890" width="120" height="80" as="geometry" />
        </mxCell>
        <mxCell id="r9hPNLz82CNfn7fM7DFw-9" value="" style="endArrow=classic;html=1;exitX=1;exitY=0.5;exitDx=0;exitDy=0;entryX=1;entryY=0.5;entryDx=0;entryDy=0;" edge="1" parent="1" source="r9hPNLz82CNfn7fM7DFw-6" target="r9hPNLz82CNfn7fM7DFw-7">
          <mxGeometry width="50" height="50" relative="1" as="geometry">
            <mxPoint x="550" y="650" as="sourcePoint" />
            <mxPoint x="600" y="600" as="targetPoint" />
            <Array as="points">
              <mxPoint x="560" y="475" />
              <mxPoint x="560" y="930" />
            </Array>
          </mxGeometry>
        </mxCell>
        <mxCell id="r9hPNLz82CNfn7fM7DFw-10" value="False" style="text;html=1;strokeColor=none;fillColor=none;align=center;verticalAlign=middle;whiteSpace=wrap;rounded=0;" vertex="1" parent="1">
          <mxGeometry x="450" y="450" width="40" height="20" as="geometry" />
        </mxCell>
        <mxCell id="r9hPNLz82CNfn7fM7DFw-11" value="Error-Meldung" style="shape=process;whiteSpace=wrap;html=1;backgroundOutline=1;" vertex="1" parent="1">
          <mxGeometry x="500" y="840" width="120" height="60" as="geometry" />
        </mxCell>
        <mxCell id="r9hPNLz82CNfn7fM7DFw-19" value="" style="edgeStyle=orthogonalEdgeStyle;rounded=0;orthogonalLoop=1;jettySize=auto;html=1;" edge="1" parent="1" source="r9hPNLz82CNfn7fM7DFw-12" target="r9hPNLz82CNfn7fM7DFw-13">
          <mxGeometry relative="1" as="geometry" />
        </mxCell>
        <mxCell id="r9hPNLz82CNfn7fM7DFw-12" value="Mit ESP32 verbinden" style="shape=process;whiteSpace=wrap;html=1;backgroundOutline=1;" vertex="1" parent="1">
          <mxGeometry x="310" y="585" width="120" height="60" as="geometry" />
        </mxCell>
        <mxCell id="r9hPNLz82CNfn7fM7DFw-20" value="" style="edgeStyle=orthogonalEdgeStyle;rounded=0;orthogonalLoop=1;jettySize=auto;html=1;" edge="1" parent="1" source="r9hPNLz82CNfn7fM7DFw-13" target="r9hPNLz82CNfn7fM7DFw-14">
          <mxGeometry relative="1" as="geometry" />
        </mxCell>
        <mxCell id="r9hPNLz82CNfn7fM7DFw-13" value="Dateien übertragen" style="shape=process;whiteSpace=wrap;html=1;backgroundOutline=1;" vertex="1" parent="1">
          <mxGeometry x="310" y="670" width="120" height="60" as="geometry" />
        </mxCell>
        <mxCell id="r9hPNLz82CNfn7fM7DFw-21" value="" style="edgeStyle=orthogonalEdgeStyle;rounded=0;orthogonalLoop=1;jettySize=auto;html=1;" edge="1" parent="1" source="r9hPNLz82CNfn7fM7DFw-14" target="r9hPNLz82CNfn7fM7DFw-7">
          <mxGeometry relative="1" as="geometry" />
        </mxCell>
        <mxCell id="r9hPNLz82CNfn7fM7DFw-14" value="In Datenbank aufnehmen" style="shape=process;whiteSpace=wrap;html=1;backgroundOutline=1;" vertex="1" parent="1">
          <mxGeometry x="310" y="760" width="120" height="60" as="geometry" />
        </mxCell>
      </root>
    </mxGraphModel>
  </diagram>
</mxfile>
